<?xml version="1.0" encoding="utf-8"?>
<!-- Generated by Mocodo 4.0.14 -->
<svg width="1038" height="773" viewBox="0 0 1038 773" xmlns="http://www.w3.org/2000/svg">
<rect x="0" y="0" width="1038" height="773" fill="#ffffbf" stroke="none" stroke-width="0"/>

<!-- Inheritance TACHE_PARENT_#1 -->
<g>
	<line x1="710" y1="275" x2="710" y2="152" stroke="#66c2a5" stroke-width="2"/>
	<polygon points="710 199 704 187 710 191 716 187" fill="#66c2a5" stroke-width="0"/>
	<line x1="710" y1="51" x2="710" y2="152" stroke="#66c2a5" stroke-width="2"/>
	<line x1="852" y1="152" x2="710" y2="152" stroke="#66c2a5" stroke-width="2"/>
	<g>
		<polygon points="710 126.6 688 164.7 732 164.7" stroke="#66c2a5" stroke-width="2" fill="#abdda4"/>
		<text x="702" y="157" fill="#000000" font-family="Verdana" font-size="12">XT</text>
	</g>
</g>

<!-- Association A_SC -->
<g>
	<line x1="107" y1="51" x2="260" y2="51" stroke="#66c2a5" stroke-width="2"/>
	<line x1="260" y1="152" x2="260" y2="51" stroke="#66c2a5" stroke-width="2"/>
	<g>
		<path d="M269 26 a14 14 90 0 1 14 14 V51 h-46 V40 a14 14 90 0 1 14 -14" fill="#abdda4" stroke="#abdda4" stroke-width="0"/>
		<path d="M283 51 v11 a14 14 90 0 1 -14 14 H251 a14 14 90 0 1 -14 -14 V51 H46" fill="#e6f598" stroke="#e6f598" stroke-width="0"/>
		<rect x="237" y="26" width="46" height="50" fill="none" rx="14" stroke="#66c2a5" stroke-width="2"/>
		<line x1="237" y1="51" x2="283" y2="51" stroke="#66c2a5" stroke-width="1"/>
		<text x="244" y="43.75" fill="#000000" font-family="Verdana" font-size="12">a_SC</text>
	</g>
	<text x="210" y="68" fill="#d53e4f" font-family="Verdana" font-size="12">1,1</text>
	<text x="233" y="110" fill="#d53e4f" font-family="Verdana" font-size="12">0,N</text>
</g>

<!-- Association A_TC -->
<g>
	<line x1="710" y1="275" x2="579" y2="51" stroke="#66c2a5" stroke-width="2"/>
	<line x1="260" y1="152" x2="579" y2="51" stroke="#66c2a5" stroke-width="2"/>
	<g>
		<path d="M588 26 a14 14 90 0 1 14 14 V51 h-46 V40 a14 14 90 0 1 14 -14" fill="#abdda4" stroke="#abdda4" stroke-width="0"/>
		<path d="M602 51 v11 a14 14 90 0 1 -14 14 H570 a14 14 90 0 1 -14 -14 V51 H46" fill="#e6f598" stroke="#e6f598" stroke-width="0"/>
		<rect x="556" y="26" width="46" height="50" fill="none" rx="14" stroke="#66c2a5" stroke-width="2"/>
		<line x1="556" y1="51" x2="602" y2="51" stroke="#66c2a5" stroke-width="1"/>
		<text x="563" y="43.75" fill="#000000" font-family="Verdana" font-size="12">a_TC</text>
	</g>
	<text x="666.02" y="191" fill="#d53e4f" font-family="Verdana" font-size="12">1,1</text>
	<text x="328" y="146.59" fill="#d53e4f" font-family="Verdana" font-size="12">0,N</text>
</g>

<!-- Association TACHE_APPARTENANT_A_LISTE -->
<g>
	<line x1="445" y1="275" x2="445" y2="152" stroke="#66c2a5" stroke-width="2"/>
	<line x1="710" y1="275" x2="445" y2="152" stroke="#66c2a5" stroke-width="2"/>
	<g>
		<path d="M521 127 a14 14 90 0 1 14 14 V152 h-180 V141 a14 14 90 0 1 14 -14" fill="#abdda4" stroke="#abdda4" stroke-width="0"/>
		<path d="M535 152 v11 a14 14 90 0 1 -14 14 H369 a14 14 90 0 1 -14 -14 V152 H180" fill="#e6f598" stroke="#e6f598" stroke-width="0"/>
		<rect x="355" y="127" width="180" height="50" fill="none" rx="14" stroke="#66c2a5" stroke-width="2"/>
		<line x1="355" y1="152" x2="535" y2="152" stroke="#66c2a5" stroke-width="1"/>
		<text x="363" y="144.75" fill="#000000" font-family="Verdana" font-size="12">Tâche_appartenant_à_liste</text>
	</g>
	<text x="450" y="242" fill="#d53e4f" font-family="Verdana" font-size="12">1,N</text>
	<text x="612" y="255.41" fill="#d53e4f" font-family="Verdana" font-size="12">0,N</text>
</g>

<!-- Association A_LC -->
<g>
	<line x1="445" y1="275" x2="260" y2="275" stroke="#66c2a5" stroke-width="2"/>
	<line x1="260" y1="152" x2="260" y2="275" stroke="#66c2a5" stroke-width="2"/>
	<g>
		<path d="M269 250 a14 14 90 0 1 14 14 V275 h-46 V264 a14 14 90 0 1 14 -14" fill="#abdda4" stroke="#abdda4" stroke-width="0"/>
		<path d="M283 275 v11 a14 14 90 0 1 -14 14 H251 a14 14 90 0 1 -14 -14 V275 H46" fill="#e6f598" stroke="#e6f598" stroke-width="0"/>
		<rect x="237" y="250" width="46" height="50" fill="none" rx="14" stroke="#66c2a5" stroke-width="2"/>
		<line x1="237" y1="275" x2="283" y2="275" stroke="#66c2a5" stroke-width="1"/>
		<text x="245" y="267.75" fill="#000000" font-family="Verdana" font-size="12">a_LC</text>
	</g>
	<text x="366" y="292" fill="#d53e4f" font-family="Verdana" font-size="12">1,1</text>
	<text x="265" y="203" fill="#d53e4f" font-family="Verdana" font-size="12">0,N</text>
</g>

<!-- Association DEFINIT -->
<g>
	<line x1="579" y1="654" x2="579" y2="275" stroke="#66c2a5" stroke-width="2"/>
	<line x1="445" y1="275" x2="579" y2="275" stroke="#66c2a5" stroke-width="2"/>
	<g>
		<path d="M593 250 a14 14 90 0 1 14 14 V275 h-56 V264 a14 14 90 0 1 14 -14" fill="#abdda4" stroke="#abdda4" stroke-width="0"/>
		<path d="M607 275 v11 a14 14 90 0 1 -14 14 H565 a14 14 90 0 1 -14 -14 V275 H56" fill="#e6f598" stroke="#e6f598" stroke-width="0"/>
		<rect x="551" y="250" width="56" height="50" fill="none" rx="14" stroke="#66c2a5" stroke-width="2"/>
		<line x1="551" y1="275" x2="607" y2="275" stroke="#66c2a5" stroke-width="1"/>
		<text x="559" y="267.75" fill="#000000" font-family="Verdana" font-size="12">Définit</text>
	</g>
	<text x="584" y="536" fill="#d53e4f" font-family="Verdana" font-size="12">0,N</text>
	<text x="503" y="292" fill="#d53e4f" font-family="Verdana" font-size="12">1,1</text>
</g>

<!-- Association SE_REPETE -->
<g>
	<line x1="710" y1="275" x2="852" y2="275" stroke="#66c2a5" stroke-width="2"/>
	<line x1="976" y1="275" x2="852" y2="275" stroke="#66c2a5" stroke-width="2"/>
	<g>
		<path d="M877 250 a14 14 90 0 1 14 14 V275 h-78 V264 a14 14 90 0 1 14 -14" fill="#abdda4" stroke="#abdda4" stroke-width="0"/>
		<path d="M891 275 v11 a14 14 90 0 1 -14 14 H827 a14 14 90 0 1 -14 -14 V275 H78" fill="#e6f598" stroke="#e6f598" stroke-width="0"/>
		<rect x="813" y="250" width="78" height="50" fill="none" rx="14" stroke="#66c2a5" stroke-width="2"/>
		<line x1="813" y1="275" x2="891" y2="275" stroke="#66c2a5" stroke-width="1"/>
		<text x="821" y="267.75" fill="#000000" font-family="Verdana" font-size="12">Se_répéte</text>
	</g>
	<text x="786" y="267" fill="#d53e4f" font-family="Verdana" font-size="12">1,1</text>
	<text x="897" y="292" fill="#d53e4f" font-family="Verdana" font-size="12">0,1</text>
</g>

<!-- Association COMPORTE -->
<g>
	<line x1="260" y1="654" x2="107" y2="401" stroke="#66c2a5" stroke-width="2"/>
	<line x1="107" y1="51" x2="107" y2="401" stroke="#66c2a5" stroke-width="2"/>
	<g>
		<path d="M130 376 a14 14 90 0 1 14 14 V401 h-74 V390 a14 14 90 0 1 14 -14" fill="#abdda4" stroke="#abdda4" stroke-width="0"/>
		<path d="M144 401 v11 a14 14 90 0 1 -14 14 H84 a14 14 90 0 1 -14 -14 V401 H74" fill="#e6f598" stroke="#e6f598" stroke-width="0"/>
		<rect x="70" y="376" width="74" height="50" fill="none" rx="14" stroke="#66c2a5" stroke-width="2"/>
		<line x1="70" y1="401" x2="144" y2="401" stroke="#66c2a5" stroke-width="1"/>
		<text x="77" y="393.75" fill="#000000" font-family="Verdana" font-size="12">Comporte</text>
	</g>
	<text x="239.76" y="612" fill="#d53e4f" font-family="Verdana" font-size="12">1,N</text>
	<text x="112" y="110" fill="#d53e4f" font-family="Verdana" font-size="12">1,N</text>
</g>

<!-- Association CONTIENT -->
<g>
	<line x1="445" y1="485" x2="445" y2="401" stroke="#66c2a5" stroke-width="2"/>
	<line x1="445" y1="275" x2="445" y2="401" stroke="#66c2a5" stroke-width="2"/>
	<g>
		<path d="M464 376 a14 14 90 0 1 14 14 V401 h-66 V390 a14 14 90 0 1 14 -14" fill="#abdda4" stroke="#abdda4" stroke-width="0"/>
		<path d="M478 401 v11 a14 14 90 0 1 -14 14 H426 a14 14 90 0 1 -14 -14 V401 H66" fill="#e6f598" stroke="#e6f598" stroke-width="0"/>
		<rect x="412" y="376" width="66" height="50" fill="none" rx="14" stroke="#66c2a5" stroke-width="2"/>
		<line x1="412" y1="401" x2="478" y2="401" stroke="#66c2a5" stroke-width="1"/>
		<text x="419" y="393.75" fill="#000000" font-family="Verdana" font-size="12">Contient</text>
	</g>
	<text x="450" y="443" fill="#d53e4f" font-family="Verdana" font-size="12">0,N</text>
	<text x="450" y="317" fill="#d53e4f" font-family="Verdana" font-size="12">0,N</text>
</g>

<!-- Association CREE -->
<g>
	<line x1="579" y1="654" x2="710" y2="401" stroke="#66c2a5" stroke-width="2"/>
	<line x1="710" y1="275" x2="710" y2="401" stroke="#66c2a5" stroke-width="2"/>
	<g>
		<path d="M718 376 a14 14 90 0 1 14 14 V401 h-44 V390 a14 14 90 0 1 14 -14" fill="#abdda4" stroke="#abdda4" stroke-width="0"/>
		<path d="M732 401 v11 a14 14 90 0 1 -14 14 H702 a14 14 90 0 1 -14 -14 V401 H44" fill="#e6f598" stroke="#e6f598" stroke-width="0"/>
		<rect x="688" y="376" width="44" height="50" fill="none" rx="14" stroke="#66c2a5" stroke-width="2"/>
		<line x1="688" y1="401" x2="732" y2="401" stroke="#66c2a5" stroke-width="1"/>
		<text x="696" y="393.75" fill="#000000" font-family="Verdana" font-size="12">Crée</text>
	</g>
	<text x="613.0" y="536" fill="#d53e4f" font-family="Verdana" font-size="12">0,N</text>
	<text x="684" y="368" fill="#d53e4f" font-family="Verdana" font-size="12">1,1</text>
</g>

<!-- Association DEPEND_DE -->
<g>
	<path d="M710 275 C788.76 264.99 853.76 306.99 905 401" fill="none" stroke="#66c2a5" stroke-width="2"/>
	<path d="M710 275 C733.24 350.92 798.24 392.92 905 401" fill="none" stroke="#66c2a5" stroke-width="2"/>
	<g>
		<path d="M933 376 a14 14 90 0 1 14 14 V401 h-84 V390 a14 14 90 0 1 14 -14" fill="#abdda4" stroke="#abdda4" stroke-width="0"/>
		<path d="M947 401 v11 a14 14 90 0 1 -14 14 H877 a14 14 90 0 1 -14 -14 V401 H84" fill="#e6f598" stroke="#e6f598" stroke-width="0"/>
		<rect x="863" y="376" width="84" height="50" fill="none" rx="14" stroke="#66c2a5" stroke-width="2"/>
		<line x1="863" y1="401" x2="947" y2="401" stroke="#66c2a5" stroke-width="1"/>
		<text x="871" y="393.75" fill="#000000" font-family="Verdana" font-size="12">Dépend_de</text>
	</g>
	<text x="786" y="308.03" fill="#d53e4f" font-family="Verdana" font-size="12">0,N</text>
	<text x="786" y="362.97" fill="#d53e4f" font-family="Verdana" font-size="12">0,N</text>
</g>

<!-- Association TRAVAILLE -->
<g>
	<line x1="445" y1="485" x2="260" y2="485" stroke="#66c2a5" stroke-width="2"/>
	<line x1="579" y1="654" x2="260" y2="485" stroke="#66c2a5" stroke-width="2"/>
	<g>
		<path d="M279 460 a14 14 90 0 1 14 14 V485 h-66 V474 a14 14 90 0 1 14 -14" fill="#abdda4" stroke="#abdda4" stroke-width="0"/>
		<path d="M293 485 v11 a14 14 90 0 1 -14 14 H241 a14 14 90 0 1 -14 -14 V485 H66" fill="#e6f598" stroke="#e6f598" stroke-width="0"/>
		<rect x="227" y="460" width="66" height="50" fill="none" rx="14" stroke="#66c2a5" stroke-width="2"/>
		<line x1="227" y1="485" x2="293" y2="485" stroke="#66c2a5" stroke-width="1"/>
		<text x="234" y="477.75" fill="#000000" font-family="Verdana" font-size="12">Travaille</text>
	</g>
	<text x="365" y="502" fill="#d53e4f" font-family="Verdana" font-size="12">1,N</text>
	<text x="476" y="626.6" fill="#d53e4f" font-family="Verdana" font-size="12">0,N</text>
</g>

<!-- Association EST_ASSIGNE -->
<g>
	<line x1="579" y1="654" x2="852" y2="485" stroke="#66c2a5" stroke-width="2"/>
	<line x1="710" y1="275" x2="852" y2="485" stroke="#66c2a5" stroke-width="2"/>
	<g>
		<path d="M881 460 a14 14 90 0 1 14 14 V485 h-86 V474 a14 14 90 0 1 14 -14" fill="#abdda4" stroke="#abdda4" stroke-width="0"/>
		<path d="M895 485 v11 a14 14 90 0 1 -14 14 H823 a14 14 90 0 1 -14 -14 V485 H86" fill="#e6f598" stroke="#e6f598" stroke-width="0"/>
		<rect x="809" y="460" width="86" height="50" fill="none" rx="14" stroke="#66c2a5" stroke-width="2"/>
		<line x1="809" y1="485" x2="895" y2="485" stroke="#66c2a5" stroke-width="1"/>
		<text x="816" y="477.75" fill="#000000" font-family="Verdana" font-size="12">Est_assigné</text>
	</g>
	<text x="660" y="619.17" fill="#d53e4f" font-family="Verdana" font-size="12">0,N</text>
	<text x="739.56" y="368" fill="#d53e4f" font-family="Verdana" font-size="12">0,N</text>
</g>

<!-- Association UTILISE -->
<g>
	<line x1="579" y1="654" x2="445" y2="654" stroke="#66c2a5" stroke-width="2"/>
	<line x1="260" y1="654" x2="445" y2="654" stroke="#66c2a5" stroke-width="2"/>
	<g>
		<path d="M457 629 a14 14 90 0 1 14 14 V654 h-52 V643 a14 14 90 0 1 14 -14" fill="#abdda4" stroke="#abdda4" stroke-width="0"/>
		<path d="M471 654 v11 a14 14 90 0 1 -14 14 H433 a14 14 90 0 1 -14 -14 V654 H52" fill="#e6f598" stroke="#e6f598" stroke-width="0"/>
		<rect x="419" y="629" width="52" height="50" fill="none" rx="14" stroke="#66c2a5" stroke-width="2"/>
		<line x1="419" y1="654" x2="471" y2="654" stroke="#66c2a5" stroke-width="1"/>
		<text x="426" y="646.75" fill="#000000" font-family="Verdana" font-size="12">Utilise</text>
	</g>
	<text x="477" y="671" fill="#d53e4f" font-family="Verdana" font-size="12">0,1</text>
	<text x="361" y="671" fill="#d53e4f" font-family="Verdana" font-size="12">0,N</text>
</g>

<!-- Entity SCORE_CATEGORIE_TACHE -->
<g>
	<g>
		<rect x="9" y="9" width="196" height="25" fill="#fdae61" stroke="none" stroke-width="0" opacity="1"/>
		<rect x="34" y="34" width="171" height="59" fill="#fee08b" stroke="none" stroke-width="0" opacity="1"/>
		<rect x="9" y="34" width="25" height="59" fill="#fee08b" stroke="none" stroke-width="0" opacity="1"/>
		<line x1="34" y1="34" x2="34" y2="93" stroke="#f46d43" stroke-width="0.25"/>
		<rect x="9" y="9" width="196" height="84" fill="none" stroke="#f46d43" stroke-width="2" opacity="1"/>
		<line x1="9" y1="34" x2="205" y2="34" stroke="#f46d43" stroke-width="1"/>
	</g>
	<text x="38" y="26.75" fill="#000000" font-family="Verdana" font-size="12">Score_catégorie_tâche</text>
	<text x="39" y="51.8" fill="#000000" font-family="Verdana" font-size="12">réf_score_catégorie_tâche</text>
	<text x="14" y="51.8" fill="#000000" font-family="Verdana" font-size="12">ID</text>
	<line x1="39" y1="54" x2="200" y2="54" stroke="#000000" stroke-width="1"/>
	<text x="39" y="68.8" fill="#000000" font-family="Verdana" font-size="12">terminé</text>
	<text x="21" y="68.8" fill="#000000" font-family="Verdana" font-size="12"></text>
	<text x="39" y="85.8" fill="#000000" font-family="Verdana" font-size="12">score</text>
	<text x="21" y="85.8" fill="#000000" font-family="Verdana" font-size="12"></text>
</g>

<!-- Entity TACHE_PASSEE -->
<g>
	<g>
		<rect x="650" y="26" width="120" height="25" fill="#fdae61" stroke="none" stroke-width="0" opacity="1"/>
		<rect x="661" y="51" width="109" height="25" fill="#fee08b" stroke="none" stroke-width="0" opacity="1"/>
		<rect x="650" y="51" width="11" height="25" fill="#fee08b" stroke="none" stroke-width="0" opacity="1"/>
		<line x1="661" y1="51" x2="661" y2="76" stroke="#f46d43" stroke-width="0.25"/>
		<rect x="650" y="26" width="120" height="50" fill="none" stroke="#f46d43" stroke-width="2" opacity="1"/>
		<line x1="650" y1="51" x2="770" y2="51" stroke="#f46d43" stroke-width="1"/>
	</g>
	<text x="667" y="43.75" fill="#000000" font-family="Verdana" font-size="12">Tâche_passée</text>
	<text x="666" y="68.8" fill="#000000" font-family="Verdana" font-size="12">date_réalisation</text>
	<text x="655" y="68.8" fill="#000000" font-family="Verdana" font-size="12"></text>
</g>

<!-- Entity CATEGORIE -->
<g>
	<g>
		<rect x="197" y="118" width="126" height="25" fill="#fdae61" stroke="none" stroke-width="0" opacity="1"/>
		<rect x="222" y="143" width="101" height="43" fill="#fee08b" stroke="none" stroke-width="0" opacity="1"/>
		<rect x="197" y="143" width="25" height="43" fill="#fee08b" stroke="none" stroke-width="0" opacity="1"/>
		<line x1="222" y1="143" x2="222" y2="186" stroke="#f46d43" stroke-width="0.25"/>
		<rect x="197" y="118" width="126" height="68" fill="none" stroke="#f46d43" stroke-width="2" opacity="1"/>
		<line x1="197" y1="143" x2="323" y2="143" stroke="#f46d43" stroke-width="1"/>
	</g>
	<text x="231" y="135.75" fill="#000000" font-family="Verdana" font-size="12">Catégorie</text>
	<text x="227" y="160.8" fill="#000000" font-family="Verdana" font-size="12">réf_catégorie</text>
	<text x="202" y="160.8" fill="#000000" font-family="Verdana" font-size="12">ID</text>
	<line x1="227" y1="163" x2="308" y2="163" stroke="#000000" stroke-width="1"/>
	<text x="227" y="177.8" fill="#000000" font-family="Verdana" font-size="12">nom_catégorie</text>
	<text x="209" y="177.8" fill="#000000" font-family="Verdana" font-size="12"></text>
</g>

<!-- Entity TACHE_EN_COURS -->
<g>
	<g>
		<rect x="792" y="135" width="120" height="25" fill="#fdae61" stroke="none" stroke-width="0" opacity="1"/>
		<rect x="802" y="160" width="110" height="9" fill="#fee08b" stroke="none" stroke-width="0" opacity="1"/>
		<rect x="792" y="160" width="10" height="9" fill="#fee08b" stroke="none" stroke-width="0" opacity="1"/>
		<line x1="802" y1="160" x2="802" y2="169" stroke="#f46d43" stroke-width="0.25"/>
		<rect x="792" y="135" width="120" height="34" fill="none" stroke="#f46d43" stroke-width="2" opacity="1"/>
		<line x1="792" y1="160" x2="912" y2="160" stroke="#f46d43" stroke-width="1"/>
	</g>
	<text x="803" y="152.75" fill="#000000" font-family="Verdana" font-size="12">Tâche_en_cours</text>
</g>

<!-- Entity LISTE_TACHE -->
<g>
	<g>
		<rect x="392" y="250" width="106" height="25" fill="#fdae61" stroke="none" stroke-width="0" opacity="1"/>
		<rect x="417" y="275" width="81" height="25" fill="#fee08b" stroke="none" stroke-width="0" opacity="1"/>
		<rect x="392" y="275" width="25" height="25" fill="#fee08b" stroke="none" stroke-width="0" opacity="1"/>
		<line x1="417" y1="275" x2="417" y2="300" stroke="#f46d43" stroke-width="0.25"/>
		<rect x="392" y="250" width="106" height="50" fill="none" stroke="#f46d43" stroke-width="2" opacity="1"/>
		<line x1="392" y1="275" x2="498" y2="275" stroke="#f46d43" stroke-width="1"/>
	</g>
	<text x="410" y="267.75" fill="#000000" font-family="Verdana" font-size="12">Liste_tâche</text>
	<text x="422" y="292.8" fill="#000000" font-family="Verdana" font-size="12">réf_liste</text>
	<text x="397" y="292.8" fill="#000000" font-family="Verdana" font-size="12">ID</text>
	<line x1="422" y1="295" x2="472" y2="295" stroke="#000000" stroke-width="1"/>
</g>

<!-- Entity TACHE -->
<g>
	<g>
		<rect x="639" y="199" width="142" height="25" fill="#fdae61" stroke="none" stroke-width="0" opacity="1"/>
		<rect x="664" y="224" width="117" height="127" fill="#fee08b" stroke="none" stroke-width="0" opacity="1"/>
		<rect x="639" y="224" width="25" height="127" fill="#fee08b" stroke="none" stroke-width="0" opacity="1"/>
		<line x1="664" y1="224" x2="664" y2="351" stroke="#f46d43" stroke-width="0.25"/>
		<rect x="639" y="199" width="142" height="152" fill="none" stroke="#f46d43" stroke-width="2" opacity="1"/>
		<line x1="639" y1="224" x2="781" y2="224" stroke="#f46d43" stroke-width="1"/>
	</g>
	<text x="692" y="216.75" fill="#000000" font-family="Verdana" font-size="12">Tâche</text>
	<text x="669" y="241.8" fill="#000000" font-family="Verdana" font-size="12">réf_tâche</text>
	<text x="644" y="241.8" fill="#000000" font-family="Verdana" font-size="12">ID</text>
	<line x1="669" y1="244" x2="727" y2="244" stroke="#000000" stroke-width="1"/>
	<text x="669" y="258.8" fill="#000000" font-family="Verdana" font-size="12">intitulé</text>
	<text x="651" y="258.8" fill="#000000" font-family="Verdana" font-size="12"></text>
	<text x="669" y="275.8" fill="#000000" font-family="Verdana" font-size="12">description</text>
	<text x="651" y="275.8" fill="#000000" font-family="Verdana" font-size="12"></text>
	<text x="669" y="292.8" fill="#000000" font-family="Verdana" font-size="12">priorité</text>
	<text x="651" y="292.8" fill="#000000" font-family="Verdana" font-size="12"></text>
	<text x="669" y="309.8" fill="#000000" font-family="Verdana" font-size="12">url</text>
	<text x="651" y="309.8" fill="#000000" font-family="Verdana" font-size="12"></text>
	<text x="669" y="326.8" fill="#000000" font-family="Verdana" font-size="12">date_d_échéance</text>
	<text x="651" y="326.8" fill="#000000" font-family="Verdana" font-size="12"></text>
	<text x="669" y="343.8" fill="#000000" font-family="Verdana" font-size="12">statut</text>
	<text x="651" y="343.8" fill="#000000" font-family="Verdana" font-size="12"></text>
</g>

<!-- Entity PERIODICITE -->
<g>
	<g>
		<rect x="923" y="233" width="106" height="25" fill="#fdae61" stroke="none" stroke-width="0" opacity="1"/>
		<rect x="948" y="258" width="81" height="59" fill="#fee08b" stroke="none" stroke-width="0" opacity="1"/>
		<rect x="923" y="258" width="25" height="59" fill="#fee08b" stroke="none" stroke-width="0" opacity="1"/>
		<line x1="948" y1="258" x2="948" y2="317" stroke="#f46d43" stroke-width="0.25"/>
		<rect x="923" y="233" width="106" height="84" fill="none" stroke="#f46d43" stroke-width="2" opacity="1"/>
		<line x1="923" y1="258" x2="1029" y2="258" stroke="#f46d43" stroke-width="1"/>
	</g>
	<text x="945" y="250.75" fill="#000000" font-family="Verdana" font-size="12">Périodicité</text>
	<text x="953" y="275.8" fill="#000000" font-family="Verdana" font-size="12">date_début</text>
	<text x="928" y="275.8" fill="#000000" font-family="Verdana" font-size="12">ID</text>
	<line x1="953" y1="278" x2="1023" y2="278" stroke="#000000" stroke-width="1"/>
	<text x="953" y="292.8" fill="#000000" font-family="Verdana" font-size="12">date_fin</text>
	<text x="935" y="292.8" fill="#000000" font-family="Verdana" font-size="12"></text>
	<text x="953" y="309.8" fill="#000000" font-family="Verdana" font-size="12">période</text>
	<text x="935" y="309.8" fill="#000000" font-family="Verdana" font-size="12"></text>
</g>

<!-- Entity PROJET -->
<g>
	<g>
		<rect x="392" y="451" width="106" height="25" fill="#fdae61" stroke="none" stroke-width="0" opacity="1"/>
		<rect x="417" y="476" width="81" height="43" fill="#fee08b" stroke="none" stroke-width="0" opacity="1"/>
		<rect x="392" y="476" width="25" height="43" fill="#fee08b" stroke="none" stroke-width="0" opacity="1"/>
		<line x1="417" y1="476" x2="417" y2="519" stroke="#f46d43" stroke-width="0.25"/>
		<rect x="392" y="451" width="106" height="68" fill="none" stroke="#f46d43" stroke-width="2" opacity="1"/>
		<line x1="392" y1="476" x2="498" y2="476" stroke="#f46d43" stroke-width="1"/>
	</g>
	<text x="427" y="468.75" fill="#000000" font-family="Verdana" font-size="12">Projet</text>
	<text x="422" y="493.8" fill="#000000" font-family="Verdana" font-size="12">réf_projet</text>
	<text x="397" y="493.8" fill="#000000" font-family="Verdana" font-size="12">ID</text>
	<line x1="422" y1="496" x2="483" y2="496" stroke="#000000" stroke-width="1"/>
	<text x="422" y="510.8" fill="#000000" font-family="Verdana" font-size="12">nom_projet</text>
	<text x="404" y="510.8" fill="#000000" font-family="Verdana" font-size="12"></text>
</g>

<!-- Entity PROGRAMME_DE_SCORE -->
<g>
	<g>
		<rect x="164" y="620" width="192" height="25" fill="#fdae61" stroke="none" stroke-width="0" opacity="1"/>
		<rect x="189" y="645" width="167" height="43" fill="#fee08b" stroke="none" stroke-width="0" opacity="1"/>
		<rect x="164" y="645" width="25" height="43" fill="#fee08b" stroke="none" stroke-width="0" opacity="1"/>
		<line x1="189" y1="645" x2="189" y2="688" stroke="#f46d43" stroke-width="0.25"/>
		<rect x="164" y="620" width="192" height="68" fill="none" stroke="#f46d43" stroke-width="2" opacity="1"/>
		<line x1="164" y1="645" x2="356" y2="645" stroke="#f46d43" stroke-width="1"/>
	</g>
	<text x="194" y="637.75" fill="#000000" font-family="Verdana" font-size="12">Programme_de_score</text>
	<text x="194" y="662.8" fill="#000000" font-family="Verdana" font-size="12">réf_programme_de_score</text>
	<text x="169" y="662.8" fill="#000000" font-family="Verdana" font-size="12">ID</text>
	<line x1="194" y1="665" x2="351" y2="665" stroke="#000000" stroke-width="1"/>
	<text x="194" y="679.8" fill="#000000" font-family="Verdana" font-size="12">nom_programme</text>
	<text x="176" y="679.8" fill="#000000" font-family="Verdana" font-size="12"></text>
</g>

<!-- Entity UTILISATEUR -->
<g>
	<g>
		<rect x="503" y="544" width="152" height="25" fill="#fdae61" stroke="none" stroke-width="0" opacity="1"/>
		<rect x="528" y="569" width="127" height="195" fill="#fee08b" stroke="none" stroke-width="0" opacity="1"/>
		<rect x="503" y="569" width="25" height="195" fill="#fee08b" stroke="none" stroke-width="0" opacity="1"/>
		<line x1="528" y1="569" x2="528" y2="764" stroke="#f46d43" stroke-width="0.25"/>
		<rect x="503" y="544" width="152" height="220" fill="none" stroke="#f46d43" stroke-width="2" opacity="1"/>
		<line x1="503" y1="569" x2="655" y2="569" stroke="#f46d43" stroke-width="1"/>
	</g>
	<text x="548" y="561.75" fill="#000000" font-family="Verdana" font-size="12">Utilisateur</text>
	<text x="533" y="586.8" fill="#000000" font-family="Verdana" font-size="12">réf_utilisateur</text>
	<text x="508" y="586.8" fill="#000000" font-family="Verdana" font-size="12">ID</text>
	<line x1="533" y1="589" x2="618" y2="589" stroke="#000000" stroke-width="1"/>
	<text x="533" y="603.8" fill="#000000" font-family="Verdana" font-size="12">login</text>
	<text x="511" y="603.8" fill="#000000" font-family="Verdana" font-size="12">1</text>
	<text x="533" y="620.8" fill="#000000" font-family="Verdana" font-size="12">mot_de_passe</text>
	<text x="515" y="620.8" fill="#000000" font-family="Verdana" font-size="12"></text>
	<text x="533" y="637.8" fill="#000000" font-family="Verdana" font-size="12">score</text>
	<text x="515" y="637.8" fill="#000000" font-family="Verdana" font-size="12"></text>
	<text x="533" y="654.8" fill="#000000" font-family="Verdana" font-size="12">niveau_Calculé</text>
	<text x="515" y="654.8" fill="#000000" font-family="Verdana" font-size="12"></text>
	<text x="533" y="671.8" fill="#000000" font-family="Verdana" font-size="12">nom</text>
	<text x="515" y="671.8" fill="#000000" font-family="Verdana" font-size="12"></text>
	<text x="533" y="688.8" fill="#000000" font-family="Verdana" font-size="12">prenom</text>
	<text x="515" y="688.8" fill="#000000" font-family="Verdana" font-size="12"></text>
	<text x="533" y="705.8" fill="#000000" font-family="Verdana" font-size="12">adresse</text>
	<text x="515" y="705.8" fill="#000000" font-family="Verdana" font-size="12"></text>
	<text x="533" y="722.8" fill="#000000" font-family="Verdana" font-size="12">pays</text>
	<text x="515" y="722.8" fill="#000000" font-family="Verdana" font-size="12"></text>
	<text x="533" y="739.8" fill="#000000" font-family="Verdana" font-size="12">date_de_naissance</text>
	<text x="515" y="739.8" fill="#000000" font-family="Verdana" font-size="12"></text>
	<text x="533" y="756.8" fill="#000000" font-family="Verdana" font-size="12">date_d_inscription</text>
	<text x="515" y="756.8" fill="#000000" font-family="Verdana" font-size="12"></text>
</g>
</svg>